<?xml version="1.0" encoding="UTF-8"?> <svg xmlns="http://www.w3.org/2000/svg" width="141" height="38" viewBox="0 0 141 38" fill="none"><g clip-path="url(#clip0_2001_654)"><path d="M29.6795 25.3973L29.7156 25.4205C29.6278 25.3482 29.5788 25.2992 29.6046 25.0797C29.6769 24.509 29.7208 23.9306 29.7208 23.3419C29.7208 21.883 29.4884 20.4757 29.0675 19.1536C29.0675 19.1536 29.0675 19.1536 29.0701 19.1536C29.0184 18.9858 29.0029 18.9496 29.1889 18.7896L29.1759 18.7947C30.4954 17.594 30.7769 15.5799 29.7544 14.0513C28.7318 12.5226 26.7642 12.0165 25.1504 12.7757C25.1504 12.7757 25.1504 12.7757 25.1504 12.7731C24.9412 12.8764 24.8741 12.8248 24.7217 12.6957L24.7372 12.7137C22.3306 10.7022 19.2398 9.48602 15.8649 9.48602C15.7306 9.48602 15.5964 9.49119 15.4595 9.49635C15.4595 9.49635 15.4621 9.49635 15.4647 9.49119C15.1806 9.49635 15.1367 9.4318 15.0438 9.26137L15.0593 9.29752C14.4989 8.39635 13.4118 7.90574 12.3196 8.15879C11.2248 8.41443 10.4656 9.34142 10.3649 10.4027V10.382C10.3442 10.5525 10.3313 10.6454 10.1609 10.7255C10.1609 10.7255 10.1635 10.7255 10.1661 10.728C6.54071 12.3729 3.74423 15.5283 2.59259 19.3938C2.59259 19.3938 2.59259 19.3938 2.58742 19.3912C2.53061 19.5719 2.46348 19.6107 2.3008 19.6417C2.29047 19.6417 2.27756 19.6468 2.26723 19.6468C2.26207 19.6468 2.25691 19.6468 2.25174 19.6494H2.25691C1.04071 19.9102 0.0956356 20.9431 0.00784208 22.2393C-0.0825336 23.5511 0.728265 24.7156 1.91348 25.1288C2.07874 25.1856 2.14071 25.2346 2.17428 25.4464C2.17428 25.4464 2.17686 25.4464 2.17944 25.4438C2.51512 27.6438 3.36465 29.6785 4.61184 31.4112C4.99658 31.9457 5.41489 32.4492 5.86935 32.9217C7.44447 34.564 9.41724 35.8189 11.6302 36.5316C12.1672 36.7046 12.7198 36.844 13.2853 36.9499C14.1219 37.1074 14.9818 37.1952 15.8623 37.1952C17.4762 37.1952 19.0255 36.9137 20.4663 36.4051C20.9827 36.2217 21.4863 36.01 21.9743 35.7699C24.7966 34.3755 27.0741 32.049 28.4116 29.1957C28.4968 29.0149 28.564 28.9788 28.7551 28.9529H28.7241C29.4729 28.829 30.121 28.2997 30.3457 27.5224C30.5781 26.7194 30.2837 25.8982 29.6769 25.3973H29.6795ZM24.2182 18.787C24.3499 18.9032 24.3912 18.9626 24.3008 19.1278C23.6734 20.1891 22.9839 21.1987 22.2222 22.1438C22.1318 22.2419 22.0621 22.2522 21.8426 22.1644C20.3088 21.5421 18.7104 21.0567 17.0682 20.7262H17.094C16.8616 20.6823 16.8306 20.6694 16.7971 20.3698C16.7971 20.3698 16.7971 20.3698 16.7945 20.3724C16.6602 19.182 16.4511 18.002 16.1567 16.8349C16.1567 16.8349 16.1567 16.8349 16.1593 16.8349C16.1128 16.6438 16.1309 16.5973 16.2703 16.5637C17.6905 16.3184 19.1442 16.1842 20.629 16.1842C21.3778 16.1842 22.1241 16.2229 22.8729 16.2926C22.9865 16.3107 23.033 16.3546 23.0743 16.587C23.1466 17.1215 23.3351 17.6482 23.6553 18.1259C23.8205 18.3738 24.0116 18.5933 24.2208 18.7844L24.2182 18.787ZM17.9539 26.3036C17.8248 26.3811 17.7499 26.345 17.6543 26.2623L17.6698 26.2778C17.4736 26.1151 17.2567 25.9731 17.0269 25.8595C16.8435 25.7769 16.8435 25.7407 16.8668 25.4928L16.8616 25.5109C16.9417 24.5349 16.9701 23.5562 16.9442 22.5827V22.6086C16.9442 22.4407 16.9675 22.3891 17.1121 22.4072C18.3593 22.6783 19.5781 23.045 20.7581 23.4943C20.8872 23.5511 20.9079 23.6285 20.8175 23.7344C19.9266 24.664 18.9687 25.5238 17.9513 26.3036H17.9539ZM23.5443 13.8473C23.6734 13.9687 23.6553 14.0384 23.5727 14.1804C23.5727 14.1804 23.5752 14.1804 23.5778 14.1804C23.5133 14.2837 23.4539 14.3921 23.4022 14.5006V14.4799C23.3428 14.591 23.379 14.6994 23.033 14.6684C22.2325 14.5935 21.4295 14.5522 20.6264 14.5522C19.0074 14.5522 17.4194 14.702 15.8726 14.9757C15.6712 15.0119 15.6067 14.955 15.5499 14.7846V14.7975C15.3072 14.0771 15.0283 13.3644 14.721 12.6621C14.6616 12.5226 14.6461 12.4865 14.7726 12.3522C14.7778 12.3471 14.7804 12.3445 14.7856 12.3393C14.7856 12.3367 14.7907 12.3341 14.7933 12.3316C15.0464 12.0501 15.2323 11.7118 15.3407 11.3452C15.3924 11.1877 15.3949 11.1283 15.5938 11.1179C15.6816 11.1128 15.7719 11.1102 15.8597 11.1102C18.7698 11.1102 21.4424 12.1379 23.5443 13.8421V13.8473ZM15.2374 25.3612C15.2194 25.4851 15.1755 25.5419 14.9766 25.5884C14.5841 25.6633 14.2149 25.813 13.887 26.017L13.8921 26.0119C13.8792 26.0222 13.8689 26.0274 13.856 26.0351C13.8379 26.048 13.8172 26.0583 13.7992 26.0713C13.6391 26.1694 13.5978 26.1384 13.3989 26.0015C13.3989 26.0015 13.3989 26.0015 13.3989 26.0041C11.2971 24.5452 8.99377 23.391 6.53297 22.5827C6.53297 22.5827 6.53813 22.5828 6.53813 22.5802C6.31606 22.5053 6.31348 22.4485 6.46583 22.402C8.21395 22.0224 9.99306 21.8262 11.7851 21.8262C12.9109 21.8262 14.0212 21.9088 15.1187 22.056C15.2194 22.0766 15.2839 22.118 15.302 22.2755C15.3459 23.3032 15.3201 24.3335 15.2349 25.3637L15.2374 25.3612ZM14.3285 16.9846C14.4395 16.9665 14.4989 16.9898 14.5454 17.1215C14.8088 18.1492 15.0076 19.1898 15.1393 20.2381C15.1471 20.4086 15.0748 20.4034 14.8656 20.3776L14.8863 20.3827C13.8663 20.264 12.8334 20.1968 11.7902 20.1968C9.96724 20.1968 8.15973 20.3853 6.38062 20.7546C6.38062 20.7546 6.38062 20.7546 6.38062 20.752C6.16113 20.7959 6.09916 20.7933 6.22311 20.6926C8.65809 19.0013 11.3952 17.736 14.3285 16.9846ZM10.7393 12.2489C10.8348 12.2154 10.9123 12.2334 11.0311 12.3755L11.0259 12.3626C11.5036 12.879 12.1802 13.1863 12.9032 13.1837H12.8928C13.0762 13.1785 13.1717 13.2095 13.2518 13.3877C13.5048 13.9687 13.7372 14.5574 13.9438 15.1539C14.0135 15.3656 13.9128 15.4018 13.714 15.4534H13.7191C10.3649 16.3391 7.25597 17.8626 4.53179 19.8973C4.38461 20.0058 4.30972 19.9877 4.23484 19.9438C4.17287 19.9076 4.15221 19.8766 4.18062 19.7553C5.20573 16.4243 7.61231 13.6975 10.7367 12.2489H10.7393ZM3.80362 25.3276C3.78296 25.1778 3.81653 25.121 3.9508 25.0694H3.94564C4.43109 24.868 4.8494 24.5374 5.15667 24.114C5.26512 23.9565 5.33226 23.9177 5.50527 23.9642C8.01254 24.7311 10.3546 25.875 12.4771 27.352C12.6191 27.4708 12.5804 27.5612 12.521 27.7161L12.5262 27.7083C12.4074 28.0466 12.3403 28.4055 12.3403 28.7851C12.3403 28.9323 12.3532 29.0743 12.3738 29.2163L12.3687 29.206C12.4022 29.4074 12.3893 29.5107 12.2111 29.5959C10.4501 30.3189 8.59353 30.8457 6.67757 31.1555C6.5717 31.1659 6.48132 31.1452 6.35996 31.0083C5.05855 29.3997 4.15738 27.4527 3.8062 25.325L3.80362 25.3276ZM12.5313 34.9229C12.4719 35.0236 12.4177 35.052 12.2964 35.0262C10.7238 34.5459 9.28555 33.7558 8.0487 32.7255C7.9609 32.6351 7.98156 32.5783 8.14682 32.5447L8.11325 32.5499C9.76583 32.2065 11.3694 31.7107 12.9057 31.0755C12.9057 31.0755 12.9057 31.0755 12.9057 31.0781C13.1175 30.9929 13.2182 31.0109 13.3111 31.1065V31.1013C13.448 31.2382 13.5978 31.3647 13.7604 31.4757H13.7579C13.8379 31.5274 13.9309 31.5893 13.8973 31.7288C13.5126 32.8314 13.0581 33.8978 12.5313 34.9229ZM14.2846 35.46C14.1426 35.4316 14.14 35.3541 14.2123 35.2044L14.202 35.2173C14.6616 34.2748 15.0696 33.3013 15.4234 32.2994C15.4234 32.2994 15.4234 32.2994 15.4259 32.2994C15.5111 32.0593 15.568 32.0438 15.759 32.0412H15.7539C16.1825 32.0206 16.5879 31.9147 16.9546 31.7443H16.9494C17.094 31.6771 17.2076 31.6461 17.3367 31.7701C17.8557 32.3795 18.3541 33.0095 18.8163 33.6757C19.0642 34.0321 19.2966 34.3961 19.5238 34.7602C19.6013 34.8868 19.6116 34.9539 19.4825 35.0055C18.336 35.3619 17.1224 35.5581 15.8597 35.5581C15.3252 35.5581 14.7985 35.5194 14.282 35.4522L14.2846 35.46ZM21.3856 34.2412C21.2048 34.3213 21.1428 34.2825 21.0292 34.0992C20.7529 33.6422 20.4663 33.1903 20.159 32.7487C19.6555 32.0231 19.1133 31.3337 18.5478 30.6701C18.3954 30.5048 18.4083 30.4351 18.4858 30.2905C18.4858 30.2905 18.4858 30.2879 18.4858 30.2853C18.491 30.2776 18.4935 30.2698 18.4987 30.2621V30.2673C18.7234 29.8231 18.855 29.3196 18.855 28.7851C18.855 28.514 18.8189 28.2506 18.7569 27.9975V28.0027C18.713 27.8297 18.6975 27.7755 18.8499 27.6619C18.8499 27.6619 18.8499 27.6619 18.8447 27.6619C20.1177 26.6961 21.3055 25.6168 22.3952 24.429L22.3694 24.4651C22.4804 24.3438 22.5604 24.2792 22.7231 24.3412C23.9677 24.9428 25.1581 25.6452 26.2865 26.4379C26.395 26.5283 26.3924 26.6032 26.3691 26.7633V26.7581C26.3149 27.3107 26.4931 27.8478 26.8365 28.2583L26.8288 28.2532C26.9346 28.3694 26.9579 28.4365 26.8907 28.5889C25.7262 31.0238 23.7844 33.0147 21.383 34.2386L21.3856 34.2412ZM27.9959 24.7853C27.9804 24.9015 27.952 24.9764 27.8255 25.01C27.8255 25.01 27.8255 25.0126 27.8255 25.0151C27.7144 25.0461 27.6086 25.0849 27.5053 25.1339L27.5285 25.1159C27.402 25.1933 27.3349 25.183 27.2109 25.0978C26.1497 24.3515 25.0367 23.6802 23.8774 23.0914C23.8774 23.0914 23.8774 23.0914 23.8774 23.0889C23.7405 23.0191 23.7121 22.8823 23.7947 22.7764L23.7844 22.7842C24.5074 21.8546 25.1684 20.8682 25.7701 19.8379C25.8295 19.7346 25.9095 19.6649 26.0928 19.7011L26.067 19.6907C26.4802 19.763 26.9062 19.763 27.3271 19.6907L27.2987 19.7011C27.4485 19.6727 27.5208 19.714 27.5698 19.8586C27.8978 20.9612 28.0811 22.1283 28.0811 23.3367C28.0811 23.8274 28.0501 24.3076 27.9907 24.7828L27.9959 24.7853Z" fill="#0071B9"></path><path d="M47.886 10.7358C43.7674 10.7358 40.5397 12.205 38.4379 13.7853C38.2287 13.9428 38.1771 14.201 38.332 14.4644L40.9426 17.5837C41.0975 17.8445 41.4125 17.8961 41.6733 17.687C42.874 16.7496 44.5059 15.7555 47.3231 15.7555C51.5475 15.7555 52.9031 17.0595 52.9031 19.9283V21.0644C52.9031 21.2736 52.7998 21.3769 52.5907 21.3769H47.478C41.2705 21.3769 37.4102 23.8816 37.4102 29.3583C37.4102 34.8351 41.2705 37.0274 45.8616 37.0274C49.4095 37.0274 51.7566 35.8292 52.9548 34.1069H53.0064V35.9325C53.0064 36.245 53.2156 36.4541 53.528 36.4541H57.9099C58.2224 36.4541 58.4315 36.245 58.4315 35.9325V19.5642C58.4315 13.4083 55.5524 10.7384 47.8834 10.7384L47.886 10.7358ZM52.9057 28.0001C52.9057 30.8689 50.9226 32.2762 47.3257 32.2762C44.5085 32.2762 42.9954 31.233 42.9954 29.1466C42.9954 26.7994 44.6634 25.7562 48.4205 25.7562H52.5933C52.8024 25.7562 52.9057 25.8621 52.9057 26.0687V27.9975V28.0001Z" fill="#393A36"></path><path d="M62.5449 29.9032C62.0233 28.2867 61.6592 26.3553 61.6592 23.7473C61.6592 21.1393 61.9716 19.1562 62.4932 17.5398C63.9005 13.1579 67.7608 10.6015 72.7702 10.6015C77.7796 10.6015 81.689 13.2611 83.0989 17.5398C83.6721 19.3137 83.9329 21.036 83.9329 25.1029C83.9329 25.4154 83.7238 25.6245 83.3597 25.6245H67.8667C67.6575 25.6245 67.5543 25.7278 67.5543 25.937C67.5543 26.6677 67.7118 27.2926 67.9209 27.8684C68.755 30.3189 70.7381 31.6771 73.5552 31.6771C76.3723 31.6771 78.1979 30.6339 79.4503 29.2783C79.7111 29.0175 79.9719 28.9659 80.2327 29.175L83.3106 31.8889C83.5714 32.098 83.5714 32.3588 83.3623 32.6196C81.2242 35.1243 77.6763 36.8957 73.0336 36.8957C67.7144 36.8957 63.9573 34.2877 62.5474 29.9058L62.5449 29.9032ZM77.7254 18.7921C77.0463 16.7574 75.1691 15.5593 72.8219 15.5593C70.4747 15.5593 68.5432 16.7574 67.8667 18.7921C67.6575 19.417 67.5543 20.0445 67.5543 20.9302C67.5543 21.1393 67.6575 21.2426 67.8667 21.2426H77.7254C77.9346 21.2426 78.0378 21.1393 78.0378 20.9302C78.0378 20.0445 77.932 19.417 77.7254 18.7921Z" fill="#393A36"></path><path d="M88.1886 36.276C87.8761 36.276 87.667 36.0668 87.667 35.7544V11.655C87.667 11.3426 87.8761 11.1334 88.1886 11.1334H92.9888C93.3013 11.1334 93.5104 11.3426 93.5104 11.655V13.7931H93.5621C94.7628 11.8642 96.0874 10.5576 99.2686 10.5576C101.252 10.5576 102.827 11.34 104.131 12.644C104.392 12.9048 104.443 13.114 104.234 13.3748L101.469 16.871C101.259 17.1318 101.006 17.1757 100.738 16.9743C99.7696 16.2513 99.1576 15.6832 97.7994 15.6832C94.8816 15.6832 93.5078 18.1208 93.5078 22.1386V35.7544C93.5078 36.0668 93.2987 36.276 92.9862 36.276H88.186H88.1886Z" fill="#393A36"></path><path d="M106.535 0.804794H111.333C111.619 0.804794 111.854 1.03719 111.854 1.32639V5.86583C111.854 6.15245 111.622 6.38743 111.333 6.38743H106.532C106.246 6.38743 106.011 6.15503 106.011 5.86583V1.32639C106.011 1.03719 106.246 0.804794 106.532 0.804794H106.535Z" fill="#393A36"></path><path d="M106.535 36.276C106.223 36.276 106.014 36.0668 106.014 35.7544V11.655C106.014 11.3426 106.223 11.1334 106.535 11.1334H111.336C111.648 11.1334 111.857 11.3426 111.857 11.655V35.7544C111.857 36.0668 111.651 36.276 111.336 36.276H106.535Z" fill="#393A36"></path><path d="M114.821 32.8856C114.612 32.6764 114.612 32.364 114.821 32.1548L117.796 29.0253C118.005 28.8161 118.317 28.8161 118.526 29.0253C120.352 30.6933 123.272 31.894 125.88 31.894C128.958 31.894 130.523 30.6417 130.523 28.9194C130.523 27.4062 129.637 26.4689 126.35 26.1539L123.639 25.8931C118.526 25.3715 115.918 22.7635 115.918 18.4874C115.918 13.6356 119.415 10.5576 125.674 10.5576C129.586 10.5576 132.873 11.8616 135.114 13.6356C135.375 13.8447 135.375 14.1572 135.217 14.3663L132.661 17.4443C132.452 17.7051 132.191 17.705 131.93 17.5475C130.366 16.4527 127.861 15.4612 125.356 15.4612C122.851 15.4612 121.547 16.556 121.547 18.0691C121.547 19.5823 122.436 20.4163 125.669 20.7288L128.38 20.9896C133.647 21.5112 136.152 24.225 136.152 28.3436C136.152 33.3504 132.501 36.8466 125.614 36.8466C120.45 36.8466 116.902 34.8119 114.816 32.883L114.821 32.8856Z" fill="#393A36"></path><path d="M137.054 34.4245C137.054 33.3039 137.906 32.4518 139.037 32.4518C140.168 32.4518 141.01 33.3039 141.01 34.4245C141.01 35.5452 140.157 36.4076 139.037 36.4076C137.916 36.4076 137.054 35.5555 137.054 34.4245ZM140.7 34.4245C140.7 33.4588 139.979 32.7513 139.037 32.7513C138.094 32.7513 137.364 33.4614 137.364 34.4245C137.364 35.3877 138.074 36.1081 139.037 36.1081C140 36.1081 140.7 35.4006 140.7 34.4245ZM138.378 35.5246C138.316 35.5246 138.285 35.4936 138.285 35.4316V33.3968C138.285 33.3349 138.316 33.3039 138.378 33.3039H139.189C139.631 33.3039 139.889 33.5595 139.889 33.952C139.889 34.249 139.744 34.4762 139.458 34.5588L139.889 35.4213C139.93 35.4936 139.889 35.5246 139.827 35.5246H139.651C139.6 35.5246 139.569 35.4832 139.548 35.4522L139.117 34.6001H138.655C138.634 34.6001 138.624 34.6105 138.624 34.6208V35.4316C138.624 35.4936 138.582 35.5246 138.531 35.5246H138.376H138.378ZM139.571 33.952C139.571 33.7377 139.458 33.6034 139.181 33.6034H138.657C138.637 33.6034 138.626 33.6137 138.626 33.6241V34.2722C138.626 34.2929 138.637 34.2929 138.657 34.2929H139.181C139.458 34.2929 139.571 34.1689 139.571 33.9546V33.952Z" fill="#393A36"></path></g><defs><clipPath id="clip0_2001_654"><rect width="141.007" height="36.3904" fill="white" transform="translate(0 0.804794)"></rect></clipPath></defs></svg> 