<svg width="122" height="25" viewBox="0 0 122 25" fill="none" xmlns="http://www.w3.org/2000/svg">
<path d="M19.4763 21.3878H19.1594C19.1104 21.3878 19.0618 21.3782 19.0165 21.3594C18.9712 21.3407 18.93 21.3133 18.8953 21.2786C18.8606 21.244 18.8331 21.2029 18.8144 21.1577C18.7956 21.1125 18.7859 21.064 18.7859 21.0151V14.917L17.2258 16.4741C17.2167 16.4868 17.2068 16.499 17.1961 16.5106L16.3526 17.3525V21.0137C16.3526 21.1126 16.3132 21.2074 16.2432 21.2773C16.1732 21.3472 16.0782 21.3864 15.9791 21.3864H15.6823C15.6134 21.3864 15.5458 21.4054 15.4871 21.4413C15.4283 21.4772 15.3806 21.5286 15.3493 21.5898C15.3181 21.6511 15.3043 21.7198 15.3097 21.7884C15.3151 21.8569 15.3394 21.9226 15.3799 21.9783L17.2769 24.5867C17.4266 24.7913 17.732 24.7913 17.8816 24.5867L19.7786 21.9783C19.8187 21.9226 19.8427 21.857 19.8479 21.7887C19.8531 21.7204 19.8393 21.6519 19.808 21.5909C19.7768 21.5299 19.7293 21.4786 19.6708 21.4428C19.6122 21.407 19.5449 21.388 19.4763 21.3878Z" fill="#B50046"/>
<path d="M17.0667 16.6335C16.5235 17.1768 15.8777 17.6071 15.1668 17.8995C14.4558 18.192 13.6938 18.3408 12.9248 18.3373V18.3422H11.9204L9.31792 20.9389C9.28329 20.9736 9.24213 21.0011 9.19682 21.0199C9.15151 21.0387 9.10293 21.0483 9.05387 21.0483C9.00481 21.0483 8.95623 21.0387 8.91092 21.0199C8.86561 21.0011 8.82446 20.9736 8.78983 20.9389L8.58273 20.7322C8.53394 20.6836 8.4726 20.6493 8.40551 20.6334C8.33842 20.6174 8.26821 20.6202 8.20266 20.6416C8.1371 20.663 8.07877 20.7022 8.03412 20.7546C7.98948 20.8071 7.96026 20.8709 7.94971 20.9389L7.43819 24.1178C7.39834 24.3683 7.61495 24.5847 7.86549 24.545L11.0554 24.0393C11.1236 24.0287 11.1875 23.9996 11.2401 23.955C11.2927 23.9105 11.3318 23.8522 11.3533 23.7868C11.3747 23.7214 11.3776 23.6513 11.3616 23.5844C11.3456 23.5174 11.3113 23.4562 11.2625 23.4075L11.0389 23.1836C11.0041 23.149 10.9765 23.1079 10.9577 23.0627C10.9389 23.0175 10.9292 22.969 10.9292 22.92C10.9292 22.8711 10.9389 22.8226 10.9577 22.7774C10.9765 22.7321 11.0041 22.6911 11.0389 22.6565L17.1965 16.5109C17.2071 16.4993 17.217 16.4871 17.2262 16.4744L17.0667 16.6335Z" fill="#731F9B"/>
<path d="M12.9271 18.3365C12.1588 18.3396 11.3975 18.1906 10.6873 17.8981C9.97704 17.6056 9.33196 17.1755 8.78934 16.6327L8.06727 15.9148H4.39341C4.2943 15.9148 4.19924 15.8755 4.12909 15.8056C4.05894 15.7357 4.01944 15.6409 4.01926 15.542V15.2458C4.0193 15.177 4.00028 15.1096 3.96431 15.0509C3.92834 14.9923 3.87682 14.9447 3.81544 14.9135C3.75407 14.8822 3.68523 14.8686 3.61655 14.8739C3.54787 14.8793 3.48201 14.9036 3.42628 14.944L0.810674 16.8352C0.605999 16.9843 0.605999 17.2896 0.810674 17.4388L3.42628 19.3321C3.48201 19.3725 3.54787 19.3967 3.61655 19.4021C3.68523 19.4075 3.75407 19.3938 3.81544 19.3626C3.87682 19.3313 3.92834 19.2838 3.96431 19.2251C4.00028 19.1665 4.0193 19.099 4.01926 19.0303V18.714C4.01944 18.6151 4.05894 18.5203 4.12909 18.4504C4.19924 18.3806 4.2943 18.3413 4.39341 18.3413H12.9271" fill="#2B55AA"/>
<path d="M8.56756 8.58458L9.50225 7.65103V3.98914C9.50225 3.89023 9.54158 3.79535 9.61159 3.72534C9.68161 3.65533 9.7766 3.6159 9.87571 3.61572H10.1725C10.2415 3.61589 10.3092 3.597 10.368 3.56115C10.4269 3.5253 10.4746 3.47389 10.506 3.41261C10.5374 3.35133 10.5512 3.28258 10.5458 3.21397C10.5404 3.14536 10.5161 3.07957 10.4756 3.0239L8.57792 0.413383C8.42827 0.208779 8.12285 0.208779 7.9732 0.413383L6.07621 3.0239C6.03572 3.07952 6.01143 3.14525 6.00603 3.2138C6.00063 3.28234 6.01434 3.35105 6.04564 3.4123C6.07693 3.47356 6.1246 3.52498 6.18335 3.56088C6.24211 3.59678 6.30968 3.61576 6.37857 3.61572H6.69543C6.79454 3.6159 6.88953 3.65533 6.95954 3.72534C7.02956 3.79535 7.06889 3.89023 7.06889 3.98914V10.0872L8.78915 8.37031L8.53581 8.62248C8.54543 8.60907 8.55604 8.59641 8.56756 8.58458Z" fill="#62B146"/>
<path d="M12.8696 6.66208H13.9341L16.5359 4.06466C16.6062 3.9949 16.7012 3.95574 16.8003 3.95574C16.8994 3.95574 16.9945 3.9949 17.0647 4.06466L17.2718 4.27135C17.3206 4.32 17.3819 4.35422 17.449 4.37021C17.5161 4.38619 17.5863 4.38333 17.6519 4.36192C17.7174 4.34052 17.7757 4.30141 17.8204 4.24894C17.865 4.19647 17.8943 4.13269 17.9048 4.06466L18.4136 0.885745C18.4534 0.635555 18.2358 0.419626 17.9856 0.459272L14.797 0.964288C14.7288 0.974814 14.6649 1.00397 14.6124 1.04853C14.5598 1.0931 14.5206 1.15132 14.4992 1.21674C14.4777 1.28217 14.4748 1.35224 14.4909 1.4192C14.5069 1.48615 14.5412 1.54738 14.5899 1.59608L14.8143 1.8193C14.8843 1.8892 14.9236 1.98399 14.9236 2.08283C14.9236 2.18167 14.8843 2.27647 14.8143 2.34637L8.56691 8.58432C8.55539 8.59614 8.54478 8.6088 8.53516 8.62221L8.7885 8.37004C9.33117 7.82723 9.97626 7.39717 10.6865 7.10472C11.3967 6.81227 12.158 6.66323 12.9263 6.66622C12.8828 6.66622 12.8393 6.66622 12.7951 6.66622C12.8197 6.66206 12.8447 6.66067 12.8696 6.66208Z" fill="#FFCC00"/>
<path d="M12.9261 6.66633C13.695 6.66302 14.457 6.81189 15.168 7.10435C15.8789 7.3968 16.5247 7.82703 17.068 8.37015L17.7866 9.09426H21.4618C21.5609 9.09426 21.656 9.13351 21.7261 9.20339C21.7963 9.27327 21.8358 9.36808 21.836 9.467V9.76326C21.836 9.8319 21.8551 9.8992 21.891 9.95773C21.9269 10.0163 21.9784 10.0637 22.0396 10.095C22.1009 10.1262 22.1696 10.1399 22.2382 10.1346C22.3067 10.1293 22.3725 10.1052 22.4283 10.065L25.0404 8.16829C25.2451 8.01916 25.2451 7.71387 25.0404 7.56475L22.4283 5.67145C22.3726 5.63097 22.3068 5.60667 22.2381 5.60125C22.1694 5.59584 22.1006 5.60952 22.0393 5.64078C21.9779 5.67204 21.9264 5.71965 21.8905 5.77833C21.8547 5.83701 21.8358 5.90447 21.836 5.97322V6.28946C21.8358 6.38838 21.7963 6.48318 21.7261 6.55306C21.656 6.62295 21.5609 6.66219 21.4618 6.66219H12.8695C12.8444 6.66191 12.8194 6.66446 12.7949 6.66977C12.8391 6.66839 12.8826 6.66633 12.9261 6.66633Z" fill="#ED6D26"/>
<path fill-rule="evenodd" clip-rule="evenodd" d="M15.0176 12.1395L14.1533 11.2769C13.8272 10.9534 13.3861 10.7717 12.9262 10.7717C12.4664 10.7717 12.0253 10.9534 11.6992 11.2769L10.8356 12.1395C10.7395 12.2357 10.6855 12.3661 10.6855 12.5019C10.6855 12.6378 10.7395 12.7681 10.8356 12.8643L11.6992 13.7262C12.0252 14.05 12.4664 14.2317 12.9262 14.2317C13.3861 14.2317 13.8273 14.05 14.1533 13.7262L15.0176 12.8643C15.1137 12.7681 15.1676 12.6378 15.1676 12.5019C15.1676 12.3661 15.1137 12.2357 15.0176 12.1395ZM13.3097 12.8533C13.2401 12.9291 13.1496 12.9826 13.0495 13.007C12.9494 13.0314 12.8444 13.0256 12.7476 12.9903C12.6509 12.9551 12.5667 12.892 12.5059 12.8091C12.4451 12.7261 12.4103 12.627 12.406 12.5243C12.4016 12.4216 12.4279 12.3199 12.4815 12.2321C12.5351 12.1443 12.6135 12.0743 12.707 12.0311C12.8004 11.9878 12.9046 11.9732 13.0064 11.9891C13.1081 12.0049 13.2029 12.0506 13.2787 12.1202C13.3798 12.2135 13.4399 12.343 13.4457 12.4804C13.4516 12.6177 13.4027 12.7518 13.3097 12.8533Z" fill="black"/>
<path d="M24.1754 14.0592H24.1575H24.1285H24.1078C24.0589 14.059 24.0106 14.0686 23.9655 14.0874C23.9204 14.1062 23.8796 14.1339 23.8455 14.1687L23.6211 14.392C23.5865 14.4266 23.5454 14.454 23.5001 14.4727C23.4549 14.4914 23.4064 14.5009 23.3574 14.5008C23.3342 14.501 23.3111 14.4989 23.2884 14.4946C23.2164 14.4805 23.1503 14.4452 23.0985 14.3933L18.2187 9.52299C18.2067 9.51112 18.1935 9.5005 18.1793 9.4913L17.0631 8.37654C15.9636 7.28476 14.4757 6.67188 12.9247 6.67188C11.3737 6.67188 9.88575 7.28476 8.78622 8.37654L6.37012 10.7879L6.63658 11.0532L7.23163 11.643L7.82599 12.2334L7.83013 12.2369L8.09107 12.5042L10.5072 10.0928C11.1502 9.45587 12.0194 9.09847 12.9254 9.09847C13.8313 9.09847 14.7005 9.45587 15.3435 10.0928L16.6821 11.4349L17.7562 12.5124L18.0206 12.777L18.617 13.375L19.2127 13.9724L19.4751 14.2328L20.5568 15.3048L21.3672 16.1096C21.4025 16.1439 21.4305 16.1849 21.4496 16.2302C21.4687 16.2756 21.4785 16.3243 21.4784 16.3734C21.4784 16.4225 21.4687 16.471 21.4498 16.5163C21.431 16.5616 21.4034 16.6027 21.3686 16.6373L21.1615 16.844C21.1266 16.8781 21.0989 16.9188 21.08 16.9638C21.0612 17.0088 21.0516 17.0571 21.0517 17.1058C21.0515 17.1859 21.0772 17.2639 21.1249 17.3282C21.1727 17.3925 21.24 17.4397 21.3168 17.4627L21.3417 17.4689C21.35 17.4689 21.3582 17.4744 21.3665 17.4758H21.3748L24.5661 17.9822C24.8167 18.0219 25.0333 17.8056 24.9935 17.555L24.4888 14.3685C24.4766 14.2903 24.4396 14.218 24.3832 14.1623C24.3268 14.1066 24.254 14.0705 24.1754 14.0592Z" fill="#E0251B"/>
<path d="M15.3455 14.9165C14.7028 15.5523 13.8344 15.909 12.9294 15.909C12.0244 15.909 11.1561 15.5523 10.5133 14.9165L8.55144 12.9584L8.198 12.5967L8.10274 12.4996L7.8418 12.2322L7.83765 12.2288L7.24329 11.6383L6.64824 11.0486L6.38178 10.7833L4.48479 8.90037C4.44994 8.86579 4.42227 8.82468 4.4034 8.77939C4.38452 8.73411 4.37481 8.68554 4.37481 8.63649C4.37481 8.58744 4.38452 8.53888 4.4034 8.49359C4.42227 8.44831 4.44994 8.40719 4.48479 8.37262L4.69189 8.16593C4.72667 8.13174 4.75429 8.09098 4.77313 8.04603C4.79198 8.00108 4.80167 7.95284 4.80165 7.90412C4.8017 7.82355 4.77564 7.74514 4.72737 7.68057C4.6791 7.616 4.6112 7.56874 4.5338 7.54585H4.52069C4.50895 7.54585 4.49791 7.53896 4.48548 7.53689L1.29484 7.02774H1.28725C1.03812 6.98704 0.82231 7.20286 0.862017 7.45215L1.36871 10.6352C1.38073 10.7135 1.41759 10.7858 1.47388 10.8416C1.53017 10.8975 1.60292 10.9338 1.68142 10.9452H1.6904C1.70326 10.9463 1.71619 10.9463 1.72905 10.9452H1.747C1.79597 10.9455 1.84449 10.936 1.88968 10.9172C1.93487 10.8984 1.97579 10.8706 2.01001 10.8357L2.23367 10.6132C2.26836 10.5784 2.30957 10.5509 2.35493 10.5321C2.4003 10.5133 2.44894 10.5036 2.49806 10.5036C2.51961 10.5036 2.54111 10.5057 2.56226 10.5098C2.63501 10.5239 2.70185 10.5594 2.75417 10.6118L7.36962 15.2224C7.38286 15.2348 7.39692 15.2463 7.41173 15.2568L8.79236 16.6348C9.89189 17.7265 11.3798 18.3394 12.9308 18.3394C14.4818 18.3394 15.9697 17.7265 17.0692 16.6348L19.4778 14.2275L19.2154 13.9671L18.6218 13.3697L18.0253 12.7717L17.7609 12.5071L15.3455 14.9165Z" fill="#00A2DB"/>
<path fill-rule="evenodd" clip-rule="evenodd" d="M64.4022 9.7567C63.6199 8.77974 62.4634 8.29126 60.9327 8.29126C60.1688 8.29126 59.4916 8.40838 58.9011 8.64264C58.3312 8.86329 57.8188 9.21003 57.4024 9.6568C56.9841 10.1146 56.6658 10.6542 56.4677 11.2414C56.2455 11.9076 56.1367 12.6063 56.1461 13.3083C56.1461 16.8956 57.7952 18.689 61.0936 18.6885C62.152 18.6885 63.0637 18.4143 63.8286 17.8659C64.5935 17.3175 65.1296 16.5343 65.437 15.5165H62.7448C62.6992 15.6873 62.6196 15.8472 62.5107 15.9867C62.4018 16.1261 62.2659 16.2422 62.1111 16.3281C61.7662 16.5266 61.3735 16.6271 60.9755 16.6189C60.3312 16.6189 59.8114 16.3982 59.4161 15.9568C59.0208 15.5154 58.8031 14.9196 58.763 14.1696H65.5806C65.5792 12.2046 65.1864 10.7337 64.4022 9.7567ZM58.8411 12.5264C58.8949 11.8443 59.1128 11.3126 59.4948 10.9314C59.6698 10.7484 59.8805 10.6032 60.1139 10.5048C60.3473 10.4063 60.5985 10.3566 60.8519 10.3589C61.1057 10.3587 61.3575 10.4027 61.5961 10.4891C61.8367 10.5758 62.0561 10.7127 62.2395 10.8907C62.4361 11.0846 62.5903 11.3171 62.6923 11.5735C62.8121 11.8773 62.8769 12.2 62.8835 12.5264H58.8411Z" fill="black"/>
<path fill-rule="evenodd" clip-rule="evenodd" d="M117.674 16.3282C117.328 16.5266 116.935 16.6272 116.537 16.6189C115.893 16.6189 115.373 16.3982 114.979 15.9568C114.584 15.5154 114.366 14.9197 114.325 14.1696H121.143C121.143 12.2024 120.751 10.7305 119.966 9.75402C119.181 8.77751 118.025 8.28903 116.497 8.28857C115.732 8.28857 115.055 8.4057 114.466 8.63995C113.896 8.86027 113.383 9.20707 112.968 9.65412C112.549 10.1115 112.23 10.6512 112.032 11.2388C111.81 11.9048 111.701 12.6036 111.711 13.3057C111.711 16.8929 113.36 18.6863 116.658 18.6858C117.717 18.6858 118.628 18.4116 119.393 17.8632C120.158 17.3148 120.694 16.5317 121.002 15.5138H118.31C118.264 15.6853 118.184 15.8459 118.075 15.9858C117.966 16.1258 117.829 16.2422 117.674 16.3282ZM115.059 10.9315C115.234 10.7486 115.445 10.6034 115.679 10.5049C115.912 10.4064 116.164 10.3568 116.417 10.3589C116.671 10.3588 116.923 10.4028 117.161 10.4891C117.402 10.5762 117.621 10.7131 117.805 10.8908C118.002 11.0849 118.156 11.3174 118.258 11.5736C118.377 11.8773 118.442 12.2 118.448 12.5264H114.406C114.459 11.8457 114.677 11.3141 115.059 10.9315Z" fill="black"/>
<path fill-rule="evenodd" clip-rule="evenodd" d="M40.5599 13.993L38.5283 5.36157H35.5917L33.7416 13.993L31.5492 5.36157H28.5732L32.3541 18.6897H34.9683L37.0807 10.0183L39.1516 18.6897H41.8466L45.5874 5.36157H42.7316L40.5599 13.993Z" fill="black"/>
<path fill-rule="evenodd" clip-rule="evenodd" d="M54.391 9.11894C53.7546 8.56362 52.9262 8.28597 51.9059 8.28597C51.5801 8.2885 51.2557 8.3292 50.9395 8.40723C50.2352 8.56691 49.5704 8.86635 48.9845 9.28773C48.9753 7.97915 48.9661 6.6701 48.9569 5.3606H46.3447V18.6894H48.9589V12.7312C48.9565 12.4153 49.0007 12.1007 49.0901 11.7977C49.1715 11.5208 49.3045 11.2618 49.4822 11.0343C49.6549 10.8146 49.8748 10.6364 50.1256 10.5127C50.395 10.3824 50.6912 10.3171 50.9905 10.3219C51.5939 10.3219 52.0263 10.4597 52.2877 10.7353C52.5491 11.0109 52.6797 11.5228 52.6797 12.271V18.6915H55.3147V11.704C55.3147 10.7139 55.0282 9.67493 54.391 9.11894Z" fill="black"/>
<path fill-rule="evenodd" clip-rule="evenodd" d="M79.135 15.8459V5.36108H76.6016V16.6788C76.6015 16.9428 76.6535 17.2042 76.7546 17.4481C76.8558 17.692 77.0041 17.9137 77.1911 18.1004C77.3781 18.2871 77.6001 18.4351 77.8445 18.5362C78.0888 18.6372 78.3507 18.6892 78.6152 18.6892H80.379V16.4921H79.7846C79.6994 16.4926 79.6148 16.4762 79.536 16.4439C79.4571 16.4116 79.3854 16.364 79.325 16.304C79.2646 16.2439 79.2167 16.1725 79.1841 16.0939C79.1515 16.0152 79.1348 15.9309 79.135 15.8459Z" fill="black"/>
<path fill-rule="evenodd" clip-rule="evenodd" d="M88.6344 13.0288C88.1935 12.8653 87.7436 12.7273 87.2869 12.6154C86.7774 12.4887 86.241 12.3451 85.6777 12.1848C85.1411 12.0365 84.7389 11.8858 84.4711 11.7329C84.337 11.6608 84.2265 11.5517 84.1528 11.4187C84.0905 11.31 84.0615 11.1854 84.0693 11.0604C84.0997 10.7525 84.4179 10.5685 84.5291 10.5044C84.6153 10.4548 84.8742 10.3177 85.597 10.3473C86.2721 10.3756 86.6097 10.3901 86.9258 10.6319C87.2786 10.9013 87.4132 11.294 87.4677 11.542H89.9819C89.9151 10.4714 89.5431 9.66181 88.8656 9.11339C88.1882 8.56497 87.1322 8.28938 85.6978 8.28662C84.9472 8.28662 84.307 8.36034 83.7773 8.50778C83.2476 8.65522 82.8152 8.85916 82.4802 9.11959C82.1592 9.36249 81.9091 9.68673 81.756 10.0587C81.6066 10.4286 81.5313 10.8242 81.5345 11.223C81.5304 11.6467 81.6234 12.0657 81.8064 12.448C81.9873 12.8224 82.3122 13.1567 82.7812 13.4512C83.1824 13.7022 83.6156 13.898 84.0693 14.0333C84.5788 14.1932 85.2488 14.3739 86.0795 14.5756C86.4631 14.6664 86.8372 14.7938 87.1964 14.9559C87.3425 15.016 87.4663 15.1197 87.551 15.2527C87.6356 15.3858 87.677 15.5418 87.6693 15.6993C87.6693 16.0741 87.4949 16.3382 87.146 16.4916C86.7579 16.6536 86.34 16.7325 85.9194 16.7231C85.2751 16.7231 84.7723 16.5958 84.411 16.3414C84.0486 16.0872 83.867 15.9652 83.867 15.4974H81.1748C81.2017 16.5005 81.6207 17.082 82.4319 17.7262C83.243 18.3704 84.4131 18.6908 85.9414 18.6908C87.3626 18.6908 88.4385 18.403 89.1694 17.8275C89.9002 17.252 90.2656 16.4482 90.2656 15.4161C90.2656 14.7731 90.1248 14.2678 89.8431 13.9004C89.5615 13.5329 89.1585 13.2424 88.6344 13.0288Z" fill="black"/>
<path fill-rule="evenodd" clip-rule="evenodd" d="M93.8122 12.5494H100.349V10.3488H93.8122V7.69008H100.912L100.909 5.35791H91.0938L91.0972 18.6895H101.234V16.3208H93.8122V12.5494Z" fill="black"/>
<path fill-rule="evenodd" clip-rule="evenodd" d="M74.6296 9.7567C73.8472 8.77974 72.6909 8.29126 71.1607 8.29126C70.3968 8.29126 69.7196 8.40838 69.1291 8.64264C68.5605 8.86341 68.0494 9.21018 67.6346 9.6568C67.2158 10.1145 66.897 10.6541 66.6985 11.2414C66.4765 11.9076 66.368 12.6063 66.3775 13.3083C66.3775 16.8956 68.0267 18.689 71.325 18.6885C72.3835 18.6885 73.2952 18.4143 74.06 17.8659C74.8249 17.3175 75.3613 16.5343 75.6692 15.5165H72.9769C72.9315 15.6877 72.852 15.8479 72.7431 15.9877C72.6342 16.1275 72.4982 16.244 72.3432 16.3302C71.9981 16.5286 71.6052 16.6291 71.207 16.6209C70.5627 16.6209 70.0431 16.4002 69.6482 15.9588C69.2534 15.5174 69.0355 14.9217 68.9945 14.1716H75.8128C75.8086 12.2053 75.4142 10.7337 74.6296 9.7567ZM69.0691 12.5264C69.122 11.8443 69.3399 11.3126 69.7228 10.9314C69.8978 10.7484 70.1085 10.6032 70.3419 10.5047C70.5753 10.4062 70.8265 10.3566 71.08 10.3589C71.3337 10.3587 71.5856 10.4027 71.8241 10.4891C72.0647 10.5759 72.284 10.7129 72.4675 10.8907C72.6642 11.0846 72.8184 11.3171 72.9203 11.5735C73.0405 11.8772 73.1052 12.1999 73.1116 12.5264H69.0691Z" fill="black"/>
<path fill-rule="evenodd" clip-rule="evenodd" d="M108.31 14.7235C108.31 15.2586 108.126 15.7 107.758 16.0477C107.39 16.3954 106.904 16.5695 106.3 16.5699C105.186 16.5699 104.63 15.9545 104.63 14.7235V8.29126H102.015V15.1045C102.007 15.6095 102.1 16.1111 102.287 16.5803C102.306 16.6264 102.326 16.6712 102.347 16.7181C102.516 17.087 102.752 17.4218 103.042 17.7061C103.369 18.0238 103.759 18.2697 104.188 18.4281C104.651 18.5994 105.143 18.6847 105.637 18.6796C106.211 18.6882 106.779 18.5609 107.294 18.3082C107.783 18.0602 108.121 17.7157 108.309 17.2748V18.8773C108.309 18.9035 108.309 18.929 108.309 18.9552C108.305 19.2301 108.255 19.5024 108.16 19.7606C108.072 20.0087 107.935 20.2371 107.759 20.433C107.597 20.6093 107.402 20.7523 107.185 20.854C107.143 20.8739 107.101 20.8905 107.059 20.9063L107.032 20.916C106.989 20.9304 106.947 20.9442 106.903 20.9552C106.86 20.9663 106.829 20.9725 106.792 20.9794C106.785 20.9812 106.778 20.9823 106.771 20.9828L106.724 20.9897H106.701L106.637 20.9966H104.371V21.0035L103.726 23.244H106.626C107.626 23.2452 108.596 22.8969 109.366 22.2595C109.471 22.1733 109.573 22.0824 109.666 21.9873C110.317 21.3386 110.743 20.498 110.879 19.5897L110.891 19.4994C110.895 19.4712 110.898 19.4436 110.901 19.4147L110.906 19.3713L110.912 19.2983L110.92 19.1708C110.927 19.0606 110.931 18.9483 110.931 18.8339V8.29126H108.315L108.31 14.7235Z" fill="black"/>
</svg>
